<svg xmlns="http://www.w3.org/2000/svg" viewBox="0 0 1440 320">
  <defs>
    <linearGradient id="gw" x1="0" x2="1">
      <stop offset="0" stop-color="#0f1724"/>
      <stop offset="1" stop-color="#071426"/>
    </linearGradient>
  </defs>
  <rect width="1440" height="320" fill="url(#gw)"/>
  <path fill="#071a2b" fill-opacity="0.8" d="M0,224L48,218.7C96,213,192,203,288,176C384,149,480,107,576,85.3C672,64,768,64,864,90.7C960,117,1056,171,1152,197.3C1248,224,1344,224,1392,224L1440,224L1440,320L1392,320C1344,320,1248,320,1152,320C1056,320,960,320,864,320C768,320,672,320,576,320C480,320,384,320,288,320C192,320,96,320,48,320L0,320Z"></path>
</svg>
